Inverse Dynamics Generalized Forces
version=1
nRows=12
nColumns=44
inDegrees=no
endheader
time	pelvis_tilt_moment	pelvis_list_moment	pelvis_rotation_moment	pelvis_tx_force	pelvis_ty_force	pelvis_tz_force	hip_flexion_r_moment	hip_adduction_r_moment	hip_rotation_r_moment	hip_flexion_l_moment	hip_adduction_l_moment	hip_rotation_l_moment	lumbar_extension_moment	lumbar_bending_moment	lumbar_rotation_moment	knee_angle_r_moment	knee_frontal_r_moment	knee_angle_r_beta_force	knee_angle_l_moment	knee_frontal_l_moment	knee_angle_l_beta_force	arm_flex_r_moment	arm_add_r_moment	arm_rot_r_moment	arm_flex_l_moment	arm_add_l_moment	arm_rot_l_moment	knee_adduction_r_moment	knee_adduction_l_moment	elbow_flex_r_moment	elbow_flex_l_moment	ankle_angle_r_moment	ankle_angle_l_moment	pro_sup_r_moment	pro_sup_l_moment	wrist_flex_r_moment	wrist_dev_r_moment	wrist_flex_l_moment	wrist_dev_l_moment	subtalar_angle_r_moment	subtalar_angle_l_moment	mtp_angle_r_moment	mtp_angle_l_moment
    1.00000000000000	   -5.34411474548781	  -20.64883829491530	   -3.45098252285549	   10.15020120184410	  -23.03143800762347	   10.78497258178625	    8.11621389792151	  -10.17653290598167	    3.05578796032196	   -9.53340740410794	  -41.30772161672876	    1.67268997106371	    4.66104979602005	   -4.53309593512073	    3.37497710303914	    0.25510328854958	   -3.66884769057972	   -0.00737088290805	   12.00835369893387	  -19.50231514989848	   -0.03826821556185	    1.95723207373710	   -2.77532124255255	   -0.46815657661989	   -2.48677603724352	   -1.35651878835062	    0.06180290999268	   -3.59075660064640	  -20.80354561104680	    1.63073939399996	    0.82348890122877	    1.44490361586779	  -73.89160497691120	   -0.05293284649449	   -0.01264698424389	   -0.02866404667712	   -0.21655483908867	    0.07648545063800	   -0.08529641331492	   -0.56208745040412	   15.50883018756837	   -0.04964355840586	   -0.03560817696786
    1.00500000000000	   -4.85187052767056	  -20.72820701772944	   -3.73962222558477	    8.82226373571550	  -22.73262492558915	   10.18335517154638	    8.05399835368649	   -9.77844154525551	    2.86292702179639	   -8.84745693411730	  -41.51260845318491	    1.48465288605907	    4.78929326461386	   -4.49633080411139	    3.28757237370148	    0.71257497340098	   -3.44092835800214	   -0.00817453256067	   12.45987958287377	  -19.68751843286739	   -0.03833509814521	    2.01208029278859	   -2.73517995308772	   -0.45687510413987	   -2.50853163144475	   -1.33309221765304	    0.07790153499862	   -3.33569280994061	  -21.00819399468423	    1.65512524482475	    0.81435931534706	    1.52914876179477	  -74.91050386007819	   -0.05291869349747	   -0.01192441844824	   -0.02652602064841	   -0.21985984625347	    0.07833953134367	   -0.08144458310350	   -0.56561677148279	   15.31598525010226	   -0.05590851925632	   -0.03487452336503
    1.01000000000000	   -4.48217343041906	  -20.39776443015414	   -3.95727967198730	    7.40649238807906	  -21.92551477110031	    9.09584118631900	    7.85752146913636	   -9.13374431478607	    2.59303359544792	   -8.12926366454384	  -41.76355241837081	    1.30539683329994	    4.92349395636171	   -4.38563339217520	    3.23389413214433	    1.24208069208733	   -3.10068820308494	   -0.00906268482708	   12.89681126185067	  -19.88974833226985	   -0.03840568258917	    2.05932888041946	   -2.70201453409015	   -0.44680861440136	   -2.53006508370311	   -1.31579060954086	    0.09238841604500	   -2.96668601953342	  -21.23059470669644	    1.67762349456048	    0.80447922158738	    1.61313101559374	  -75.92796829308207	   -0.05292828100667	   -0.01126113345631	   -0.02457674012807	   -0.22311455617838	    0.07983570154957	   -0.07748260835207	   -0.56487173607259	   15.13820156196421	   -0.06260838095604	   -0.03410155345361
    1.01500000000000	   -4.27680787399819	  -19.69294475691593	   -4.10043584512024	    5.87300169043203	  -20.61443322495013	    7.55702372188514	    7.49908270407794	   -8.24357854559423	    2.25575005196826	   -7.38052299852323	  -42.03067925195998	    1.13025720256985	    5.05660741089135	   -4.20760523145520	    3.21144391069777	    1.84774186216215	   -2.65073417950519	   -0.01003458571246	   13.32114483364352	  -20.09592597835069	   -0.03847754056340	    2.09937006359754	   -2.67678925187914	   -0.43823582178374	   -2.55039208183532	   -1.30443279002014	    0.10522169461773	   -2.48712711455411	  -21.45714781550079	    1.69803104113214	    0.79402238053208	    1.69484629709983	  -76.94016417790237	   -0.05297791727228	   -0.01065901631085	   -0.02289835422384	   -0.22629099809407	    0.08098359708112	   -0.07343659182221	   -0.55988717201549	   14.97178008059605	   -0.06957665582003	   -0.03332003665829
    1.02000000000000	   -4.27523241197597	  -18.65635994032956	   -4.16732041447502	    4.18841468373606	  -18.82093634581138	    5.61381286870524	    6.95251184740494	   -7.11789911524236	    1.86371347432673	   -6.60439822325255	  -42.28780767150741	    0.95501835235273	    5.18240449514835	   -3.96958997520091	    3.21703637438623	    2.53174337459464	   -2.09736374882057	   -0.01108604938526	   13.73328655772951	  -20.29525086545046	   -0.03854793645752	    2.13261871401940	   -2.66014741578726	   -0.43136887724295	   -2.56850222035453	   -1.29864990492952	    0.11639598991564	   -1.90442402949304	  -21.67648561258176	    1.71617694440106	    0.78318444491199	    1.77210833543793	  -77.94026753622964	   -0.05308112436375	   -0.01011994949461	   -0.02155883465030	   -0.22935930374763	    0.08179873305348	   -0.06933463587724	   -0.55078685696249	   14.81226751553826	   -0.07663834329879	   -0.03256286826477
    1.02500000000000	   -4.51282290097564	  -17.33606865914985	   -4.15832883267334	    2.31905192889943	  -16.58392137406168	    3.32387307806704	    6.19443047707279	   -5.77599487437964	    1.43209601642052	   -5.80537846380822	  -42.51417849871042	    0.77614280597887	    5.29550802635994	   -3.67937894818392	    3.24698881229575	    3.29437418646867	   -1.45062769042725	   -0.01220847384790	   14.13215465130485	  -20.47991162964347	   -0.03861390299817	    2.15951790329998	   -2.65240128680700	   -0.42634995170560	   -2.58340434387870	   -1.29792759185595	    0.12593553995018	   -1.23006864843278	  -21.88020275916337	    1.73192716518437	    0.77216892424669	    1.84255958626992	  -78.91891322072114	   -0.05324825340472	   -0.00964582582831	   -0.02061025461824	   -0.23228845862096	    0.08230069248116	   -0.06520537454112	   -0.53777779169927	   14.65470920296705	   -0.08361239955597	   -0.03186427840747
    1.03000000000000	   -5.01903116954441	  -15.78399147728130	   -4.07640047759641	    0.23442870639238	  -13.95959220661739	    0.75393030406390	    5.20549672026277	   -4.24657897598477	    0.97798394038249	   -4.98896541011255	  -42.69567338415609	    0.59095012686827	    5.39141193268511	   -3.34492856632177	    3.29731615358911	    4.13415528613137	   -0.72422411303866	   -0.01338845716709	   14.51533835426997	  -20.64552669481963	   -0.03867233248232	    2.18054613760085	   -2.65354054423460	   -0.42325153665121	   -2.59417035416797	   -1.30165305152644	    0.13388602429728	   -0.47952606166278	  -22.06331908683863	    1.74518880339286	    0.76117339529187	    1.90370960222155	  -79.86492346063142	   -0.05348629028308	   -0.00923855011691	   -0.02008796244242	   -0.23504722916869	    0.08251122866834	   -0.06107654936262	   -0.52114651519947	   14.49396564361478	   -0.09031467592524	   -0.03125895598406
    1.03500000000000	   -5.81556439920278	  -14.05448830157103	   -3.92728322966539	   -2.08918753119785	  -11.02117261780931	   -2.02203874826921	    3.97153396043705	   -2.56736749916682	    0.51961865733857	   -4.16118332567674	  -42.82543070421512	    0.39772818617615	    5.46648811365960	   -2.97410520897324	    3.36392290943853	    5.04804962017048	    0.06479918093777	   -0.01460823728021	   14.87928166085159	  -20.79128288550227	   -0.03872008147939	    2.19622477379550	   -2.66325698110767	   -0.42207998977561	   -2.59997570700783	   -1.30916383362874	    0.14030574284702	    0.32807945401613	  -22.22443977284490	    1.75591362609873	    0.75037674699957	    1.95300566014732	  -80.76624145085998	   -0.05379883855723	   -0.00890002121858	   -0.02001059106086	   -0.23760521873950	    0.08245242031245	   -0.05697370567678	   -0.50125851817098	   14.32505777703527	   -0.09656132947324	   -0.03078109635724
    1.04000000000000	   -6.91470939567118	  -12.20308868379855	   -3.71961543592857	   -4.66541478542763	   -7.85825245689159	   -4.92472766598235	    2.48445315009247	   -0.78408893546436	    0.07553533465041	   -3.32793553536930	  -42.90380960791502	    0.19576683831555	    5.51798464570977	   -2.57447017963857	    3.44278342613476	    6.03173739878384	    0.89654605564306	   -0.01584700074293	   15.21946809519977	  -20.91976134623272	   -0.03875408626959	    2.20712401354440	   -2.68098225835470	   -0.42278170665105	   -2.60013495987904	   -1.31979517730475	    0.14525686889912	    1.17049731480577	  -22.36559951508736	    1.76410063360381	    0.73992817695988	    1.98793731382379	  -81.61098417098114	   -0.05418625616049	   -0.00863208942090	   -0.02038080123772	   -0.23993398850659	    0.08214501126130	   -0.05291907787123	   -0.47856102989509	   14.14350579685616	   -0.10217266925642	   -0.03046338466326
    1.04500000000000	   -8.31793453466560	  -10.28534009155809	   -3.46477213976289	   -7.49483577215805	   -4.57564535350767	   -7.87153255975744	    0.74290096388764	    1.05109247514468	   -0.33635479142631	   -2.49426269991924	  -42.93771034148275	   -0.01468705256509	    5.54401739980521	   -2.15311381148906	    3.53010222121297	    7.07992781840138	    1.74897458823421	   -0.01708288020047	   15.53059626319308	  -21.03646632162446	   -0.03877148585007	    2.21386591021447	   -2.70593500922364	   -0.42525121227780	   -2.59413092518959	   -1.33292296452196	    0.14879748986866	    2.02310383569679	  -22.49180464468539	    1.76979739119472	    0.72993854646545	    2.00617245353856	  -82.38852402518920	   -0.05464591539298	   -0.00843648574877	   -0.02118662479179	   -0.24200816885119	    0.08160705141122	   -0.04893072085507	   -0.45358851924162	   13.94562971574442	   -0.10697736056039	   -0.03033592954133
    1.05000000000000	  -10.01490059779007	   -8.35571466213738	   -3.17644597149574	  -10.56274636790637	   -1.29161779045423	  -10.77870842768266	   -1.24739972207477	    2.88170602755708	   -0.69968446665605	   -1.66359101340949	  -42.93932766727170	   -0.23254595889190	    5.54355571196382	   -1.71654386723429	    3.62244701502482	    8.18666640748219	    2.59878055886702	   -0.01829525338523	   15.80675098203496	  -21.14910319059858	   -0.03876974905825	    2.21712300918392	   -2.73717335821535	   -0.42934043889818	   -2.58163624091820	   -1.34799974083327	    0.15097509279803	    2.85985962806716	  -22.61031911525896	    1.77309986410190	    0.72047455750047	    2.00571761391657	  -83.09050725771108	   -0.05517255182966	   -0.00831472198558	   -0.02240325555031	   -0.24380648250445	    0.08085293226612	   -0.04502193051533	   -0.42696923517882	   13.72878406713693	   -0.11081686948009	   -0.03042516501412
    1.05500000000000	  -11.98299783721885	   -6.46650430470837	   -2.86996400905308	  -13.83777027336832	    1.86468083499669	  -13.56366531361308	   -3.47360850313648	    4.64956604218044	   -1.00049480142749	   -0.83708558695336	  -42.92447918280976	   -0.45605418430324	    5.51640164051528	   -1.27062944306010	    3.71684838662779	    9.34558806561719	    3.42242215654343	   -0.01946684325071	   16.04158969992595	  -21.26668051353513	   -0.03874680221263	    2.21761156520448	   -2.77364898850754	   -0.43486848367977	   -2.56252649161023	   -1.36458180827414	    0.15182204600427	    3.65443508979194	  -22.72976993538343	    1.77415053750223	    0.71155604339247	    1.98509005396129	  -83.71172097856618	   -0.05575866712500	   -0.00826796263838	   -0.02399512968395	   -0.24531260396706	    0.07989288153723	   -0.04120097914686	   -0.39943011185283	   13.49150529620219	   -0.11354999483103	   -0.03075274100981
